<svg xml:space="preserve" viewBox="0 0 100 100"><path fill="#1a1a1a" d="M50 5A45 45 0 0 0 5 50a45 45 0 0 0 45 45 45 45 0 0 0 45-45A45 45 0 0 0 50 5zm1.1621 9c9.81819 0 18.1579 4.96143 22.48634 12.45703l-7.8125 6.01758c-3.69501-5.48973-8.7618-8.44531-14.67383-8.44531-5.91202 0-10.5586 2.95558-10.5586 8.44531.4223 5.48973 2.85073 6.43996 9.7129 9.92383l7.8125 3.58984C69.42509 51.1613 74.80859 56.6512 74.80859 65.83594 74.80859 77.97668 64.88614 86 51.47852 86c-11.40176 0-20.90295-5.70177-26.28711-15.09766l7.91797-6.01758c4.64516 6.7566 10.2402 11.08594 18.26367 11.08594 7.17888 0 12.03515-3.80087 12.03515-9.71289 0-4.96187-2.95578-7.07287-10.24023-10.45117l-7.70703-3.58985c-10.1349-4.64515-16.25782-10.03-16.25782-19.3203C29.20312 21.49474 39.12692 14 51.16211 14z" paint-order="markers stroke fill"/></svg>